<svg viewBox="0 0 460 72" fill="none" xmlns="http://www.w3.org/2000/svg">
  <g stroke="#003399" stroke-width="4" stroke-linecap="round" stroke-linejoin="round" fill="none">

    <!-- V (first): clean V, no internal bars -->
    <polyline points="4,4 32,68 60,4"/>

    <!-- E (first) -->
    <line x1="74"  y1="4"  x2="74"  y2="68"/>
    <line x1="74"  y1="4"  x2="122" y2="4"/>
    <line x1="74"  y1="36" x2="118" y2="36"/>
    <line x1="74"  y1="68" x2="122" y2="68"/>

    <!-- D -->
    <path d="M 136,4 L 136,68 C 178,68 200,55 200,36 C 200,17 178,4 136,4 Z"/>

    <!-- O -->
    <rect x="214" y="4" width="60" height="64" rx="30"/>

    <!-- V (second): clean V, no internal bars -->
    <polyline points="288,4 316,68 344,4"/>

    <!-- E (second) -->
    <line x1="358" y1="4"  x2="358" y2="68"/>
    <line x1="358" y1="4"  x2="406" y2="4"/>
    <line x1="358" y1="36" x2="402" y2="36"/>
    <line x1="358" y1="68" x2="406" y2="68"/>

    <!-- C -->
    <path d="M 448,16 A 30,32 0 1 0 448,56" stroke-linecap="round"/>

  </g>
</svg>
