<?xml version="1.0" encoding="UTF-8"?>
<svg id="_Слой_2" data-name="Слой 2" xmlns="http://www.w3.org/2000/svg" viewBox="0 0 945.38 65.03">
  <defs>
    <style>
      .cls-1 {
        fill: #fff;
      }
    </style>
  </defs>
  <g id="_Слой_1-2" data-name="Слой 1">
    <g>
      <polygon class="cls-1" points="124.78 .14 138.42 .14 69.21 64.89 0 .14 13.54 .14 69.21 52.19 124.78 .14"/>
      <path class="cls-1" d="M145.17,9.28V0h124.68v9.27h-124.68ZM145.17,9.28V0h124.68v9.27h-124.68ZM145.17,37.2v-9.28h124.68v9.28h-124.68ZM145.17,37.2v-9.28h124.68v9.28h-124.68ZM145.17,65.03v-9.28h124.68v9.28h-124.68ZM145.17,65.03v-9.28h124.68v9.28h-124.68Z"/>
      <path class="cls-1" d="M292.7,55.76h80.72c3.21,0,6.23-.6,9.04-1.81,2.81-1.21,5.27-2.86,7.38-4.96,2.1-2.1,3.75-4.56,4.96-7.38,1.21-2.81,1.81-5.83,1.81-9.04s-.6-6.23-1.81-9.04c-1.21-2.81-2.86-5.27-4.96-7.38-2.1-2.1-4.56-3.77-7.38-5.01-2.81-1.24-5.83-1.86-9.04-1.86h-80.72v46.48ZM373.42,65.03h-92.22V0h92.22c4.45,0,8.66.85,12.62,2.55,3.96,1.7,7.4,4.02,10.35,6.95,2.94,2.94,5.25,6.39,6.96,10.35,1.7,3.96,2.55,8.19,2.55,12.71s-.85,8.66-2.55,12.62c-1.7,3.96-4.02,7.41-6.96,10.34-2.94,2.94-6.39,5.26-10.35,6.96-3.96,1.7-8.16,2.55-12.62,2.55Z"/>
      <path class="cls-1" d="M511.91,65.03h-73.85c-3.53,0-6.82-.66-9.88-2-3.06-1.33-5.75-3.15-8.07-5.47-2.32-2.32-4.15-5.01-5.48-8.07-1.33-3.06-1.99-6.36-1.99-9.88v-14.1c0-3.53.66-6.83,1.99-9.93,1.33-3.09,3.15-5.8,5.48-8.12,2.32-2.32,5.01-4.14,8.07-5.47,3.06-1.33,6.36-1.99,9.88-1.99h73.85c3.52,0,6.82.66,9.88,1.99,3.06,1.33,5.75,3.15,8.07,5.47,2.32,2.32,4.14,5.03,5.47,8.12,1.33,3.09,2,6.4,2,9.93v14.1c0,3.53-.67,6.82-2,9.88-1.33,3.06-3.15,5.75-5.47,8.07-2.32,2.32-5.01,4.14-8.07,5.47-3.06,1.33-6.36,2-9.88,2M438.07,9.27c-2.23,0-4.32.44-6.27,1.3-1.95.87-3.66,2.03-5.15,3.48-1.48,1.45-2.65,3.17-3.48,5.15-.83,1.98-1.25,4.08-1.25,6.31v14.1c0,2.23.42,4.31,1.25,6.26.83,1.95,2,3.66,3.48,5.15,1.48,1.49,3.2,2.64,5.15,3.48,1.95.84,4.04,1.25,6.27,1.25h73.85c2.23,0,4.31-.42,6.26-1.25,1.95-.84,3.66-1.99,5.15-3.48,1.48-1.49,2.64-3.2,3.48-5.15.83-1.95,1.25-4.04,1.25-6.26v-14.1c0-2.23-.42-4.33-1.25-6.31-.84-1.98-2-3.7-3.48-5.15-1.49-1.45-3.2-2.61-5.15-3.48-1.95-.86-4.04-1.3-6.26-1.3h-73.85Z"/>
      <polygon class="cls-1" points="668.86 .14 682.5 .14 613.29 64.89 544.08 .14 557.63 .14 613.29 52.19 668.86 .14"/>
      <path class="cls-1" d="M689.25,9.28V0h124.68v9.27h-124.68ZM689.25,9.28V0h124.68v9.27h-124.68ZM689.25,37.2v-9.28h124.68v9.28h-124.68ZM689.25,37.2v-9.28h124.68v9.28h-124.68ZM689.25,65.03v-9.28h124.68v9.28h-124.68ZM689.25,65.03v-9.28h124.68v9.28h-124.68Z"/>
      <path class="cls-1" d="M945.38,65.03h-92.22c-4.45,0-8.66-.85-12.62-2.55-3.96-1.7-7.41-4.02-10.34-6.96-2.94-2.94-5.26-6.39-6.96-10.34-1.7-3.96-2.55-8.16-2.55-12.62s.85-8.75,2.55-12.71c1.7-3.96,4.02-7.41,6.96-10.35,2.94-2.93,6.39-5.25,10.34-6.95C844.5.85,848.71,0,853.16,0h92.22v9.27h-92.22c-3.22,0-6.23.62-9.04,1.86-2.82,1.24-5.27,2.91-7.38,5.01-2.1,2.1-3.76,4.56-4.96,7.38-1.2,2.82-1.81,5.83-1.81,9.04s.6,6.23,1.81,9.04c1.21,2.81,2.86,5.27,4.96,7.38,2.1,2.1,4.56,3.76,7.38,4.96,2.81,1.21,5.83,1.81,9.04,1.81h92.22v9.28Z"/>
    </g>
  </g>
</svg>