<svg viewBox="0 0 460 72" fill="none" xmlns="http://www.w3.org/2000/svg">
  <g stroke="#003399" stroke-width="3.5" stroke-linecap="round" stroke-linejoin="round" fill="none">

    <!-- V (first): clean V shape -->
    <polyline points="4,4 32,68 60,4"/>

    <!-- E (first): three horizontal lines only, NO vertical spine -->
    <line x1="74"  y1="4"  x2="126" y2="4"/>
    <line x1="74"  y1="36" x2="122" y2="36"/>
    <line x1="74"  y1="68" x2="126" y2="68"/>

    <!-- D: flat left spine + smooth right arc -->
    <path d="M 140,4 L 140,68 C 182,68 206,54 206,36 C 206,18 182,4 140,4 Z"/>

    <!-- O: rounded rectangle outline -->
    <rect x="220" y="4" width="62" height="64" rx="30"/>

    <!-- V (second): same as first -->
    <polyline points="296,4 324,68 352,4"/>

    <!-- E (second): three horizontal lines only, NO vertical spine -->
    <line x1="366" y1="4"  x2="418" y2="4"/>
    <line x1="366" y1="36" x2="414" y2="36"/>
    <line x1="366" y1="68" x2="418" y2="68"/>

    <!-- C: arc open on right -->
    <path d="M 446,16 A 30,32 0 1 0 446,56" stroke-linecap="round"/>

  </g>
</svg>
