<svg viewBox="0 0 580 80" fill="none" xmlns="http://www.w3.org/2000/svg">
  <g stroke="#1B3A8C" stroke-width="7.5" stroke-linecap="round" stroke-linejoin="round">

    <!-- V (left) -->
    <path d="M 2,5 L 38,75 L 74,5"/>
    <line x1="16" y1="33" x2="60" y2="33"/>
    <line x1="27" y1="53" x2="49" y2="53"/>

    <!-- E (left) -->
    <path d="M 150,5 L 87,5 L 87,75 L 150,75"/>
    <line x1="87" y1="40" x2="143" y2="40"/>

    <!-- D -->
    <path d="M 162,5 C 234,5 234,75 162,75 Z"/>

    <!-- O -->
    <path d="M 264,5 Q 244,5 244,26 L 244,54 Q 244,75 264,75 L 298,75 Q 318,75 318,54 L 318,26 Q 318,5 298,5 Z"/>

    <!-- V (right) -->
    <path d="M 330,5 L 368,75 L 406,5"/>
    <line x1="344" y1="33" x2="392" y2="33"/>
    <line x1="355" y1="53" x2="381" y2="53"/>

    <!-- E (right) -->
    <path d="M 482,5 L 418,5 L 418,75 L 482,75"/>
    <line x1="418" y1="40" x2="475" y2="40"/>

    <!-- C -->
    <path d="M 570,18 C 570,5 556,5 543,5 L 516,5 C 492,5 492,75 516,75 L 543,75 C 556,75 570,75 570,62"/>

  </g>
</svg>
